<?xml version="1.0" encoding="UTF-8"?>
<svg width="18px" height="18px" viewBox="0 0 18 18" version="1.1" xmlns="http://www.w3.org/2000/svg" xmlns:xlink="http://www.w3.org/1999/xlink">
    <g stroke="none" stroke-width="1" fill="none" fill-rule="evenodd">
        <path d="M18,9 C18,4.02943725 13.9705627,0 9,0 C4.02943725,0 0,4.02943725 0,9 C0,13.4914062 3.28125,17.2303125 7.5703125,17.8828125 L7.5703125,11.6015625 L5.3203125,11.6015625 L5.3203125,9 L7.5703125,9 L7.5703125,7.0171875 C7.5703125,4.76171875 8.92734375,3.515625 11.04375,3.515625 C12.065625,3.515625 13.125,3.703125 13.125,3.703125 L13.125,5.671875 L11.9953125,5.671875 C10.9125,5.671875 10.4296875,6.4203125 10.4296875,7.1875 L10.4296875,9 L13.0078125,9 L12.671875,11.6015625 L10.4296875,11.6015625 L10.4296875,17.8828125 C14.71875,17.2303125 18,13.4914062 18,9" fill="#1877F2"></path>
    </g>
</svg>
